<svg xmlns="http://www.w3.org/2000/svg" viewBox="0 0 38 47" width="38" height="47">
	<style>
		tspan { white-space:pre }
		.shp0 { fill: #ffffff } 
	</style>
	<path id="scroll.svg" class="shp0" fill=" #ffffff" d="M18.5 12.76C17.58 12.76 16.84 13.5 16.84 14.42C16.84 15.33 17.58 16.07 18.5 16.07C19.41 16.07 20.15 15.33 20.15 14.42C20.15 13.5 19.41 12.76 18.5 12.76ZM17.54 2.99C11.61 3.47 7 8.44 7 14.42L7 28.49C7 34.84 12.16 40 18.5 40C24.84 40 30 34.84 30 28.49L30 14.42C30 8.44 25.38 3.47 19.45 2.99M18.5 38.09C13.21 38.09 8.91 33.78 8.91 28.49L8.91 14.42C8.91 9.12 13.21 4.81 18.5 4.81C23.79 4.81 28.09 9.12 28.09 14.42L28.09 28.49C28.09 33.78 23.79 38.09 18.5 38.09Z" />
</svg>