<svg xmlns="http://www.w3.org/2000/svg" viewBox="0 0 93 100" width="93" height="100">
	<style>
		tspan { white-space:pre }
		.shp0 { fill: #3c3c3c } 
	</style>
	<path id="Shape 4" class="shp0" d="M26.76 42.11C26.35 42.11 25.95 41.96 25.65 41.66L22.55 38.58C21.94 37.97 21.94 36.98 22.55 36.38C23.16 35.77 24.15 35.77 24.77 36.38L26.76 38.35L31.84 33.3C32.46 32.69 33.45 32.69 34.06 33.3C34.67 33.91 34.67 34.89 34.06 35.5L27.87 41.66C27.56 41.96 27.16 42.11 26.76 42.11ZM59.31 39.04L40.64 39.04C39.77 39.04 39.07 38.34 39.07 37.48C39.07 36.62 39.77 35.92 40.64 35.92L59.31 35.92C60.18 35.92 60.88 36.62 60.88 37.48C60.88 38.34 60.18 39.04 59.31 39.04ZM26.76 68.79C26.35 68.79 25.95 68.64 25.65 68.34L22.55 65.26C21.94 64.65 21.94 63.66 22.55 63.06C23.16 62.45 24.15 62.45 24.77 63.06L26.76 65.03L31.84 59.98C32.46 59.37 33.45 59.37 34.06 59.98C34.67 60.59 34.67 61.58 34.06 62.18L27.87 68.34C27.56 68.64 27.16 68.79 26.76 68.79ZM59.31 65.72L40.64 65.72C39.77 65.72 39.07 65.02 39.07 64.16C39.07 63.3 39.77 62.6 40.64 62.6L59.31 62.6C60.18 62.6 60.88 63.3 60.88 64.16C60.88 65.02 60.18 65.72 59.31 65.72ZM26.76 82.14C26.35 82.14 25.95 81.98 25.65 81.68L22.55 78.6C21.94 77.99 21.94 77.01 22.55 76.4C23.16 75.79 24.15 75.79 24.77 76.4L26.76 78.37L31.84 73.32C32.46 72.71 33.45 72.71 34.06 73.32C34.68 73.93 34.67 74.92 34.06 75.53L27.87 81.68C27.56 81.98 27.16 82.14 26.76 82.14ZM59.31 79.06L40.64 79.06C39.77 79.06 39.07 78.36 39.07 77.5C39.07 76.64 39.77 75.94 40.64 75.94L59.31 75.94C60.18 75.94 60.88 76.64 60.88 77.5C60.88 78.36 60.18 79.06 59.31 79.06ZM26.76 55.45C26.35 55.45 25.95 55.3 25.65 55L22.55 51.92C21.94 51.31 21.94 50.32 22.55 49.71C23.16 49.11 24.15 49.11 24.77 49.71L26.76 51.69L31.84 46.64C32.46 46.03 33.45 46.03 34.06 46.64C34.68 47.25 34.67 48.23 34.06 48.84L27.87 55C27.56 55.3 27.16 55.45 26.76 55.45ZM59.31 52.38L40.64 52.38C39.77 52.38 39.07 51.68 39.07 50.82C39.07 49.96 39.77 49.26 40.64 49.26L59.31 49.26C60.18 49.26 60.88 49.96 60.88 50.82C60.88 51.68 60.18 52.38 59.31 52.38ZM81.89 15.4L63.42 15.4C63.2 12.22 60.53 9.72 57.28 9.72L51.3 9.72C51.25 6.57 48.67 4.01 45.48 4.01C42.3 4.01 39.7 6.57 39.67 9.72L33.68 9.72C30.44 9.72 27.77 12.22 27.55 15.4L7.08 15.4C5.92 15.4 4.99 16.34 4.99 17.48L4.99 92.92C4.99 94.07 5.92 95 7.08 95L81.89 95C83.05 95 83.98 94.07 83.98 92.92L83.98 17.48C83.98 16.34 83.05 15.4 81.89 15.4ZM31.71 15.84C31.71 14.76 32.59 13.88 33.68 13.88L40.22 13.88C42.23 13.88 43.86 12.26 43.86 10.27L43.86 9.79C43.86 8.9 44.59 8.17 45.48 8.17C46.38 8.17 47.11 8.9 47.11 9.79L47.11 10.27C47.11 12.26 48.74 13.88 50.74 13.88L57.28 13.88C58.38 13.88 59.26 14.76 59.26 15.84L59.26 20.1L31.71 20.1L31.71 15.84L31.71 15.84ZM79.8 90.84L9.17 90.84L9.17 19.56L27.53 19.56L27.53 22.18C27.53 23.33 28.46 24.26 29.62 24.26L61.35 24.26C62.51 24.26 63.44 23.33 63.44 22.18L63.44 19.56L79.79 19.56L79.79 90.84L79.8 90.84ZM45.48 14.14C46.59 14.14 47.49 15.03 47.49 16.14C47.49 17.24 46.59 18.13 45.48 18.13C44.37 18.13 43.47 17.24 43.47 16.14C43.47 15.03 44.37 14.14 45.48 14.14Z" />
</svg>