<svg xmlns="http://www.w3.org/2000/svg" width="122" height="137" viewBox="0 0 122 137">
  <metadata><?xpacket begin="﻿" id="W5M0MpCehiHzreSzNTczkc9d"?>
<x:xmpmeta xmlns:x="adobe:ns:meta/" x:xmptk="Adobe XMP Core 5.6-c138 79.159824, 2016/09/14-01:09:01        ">
   <rdf:RDF xmlns:rdf="http://www.w3.org/1999/02/22-rdf-syntax-ns#">
      <rdf:Description rdf:about=""/>
   </rdf:RDF>
</x:xmpmeta>
                                                                                                    
                                                                                                    
                                                                                                    
                                                                                                    
                                                                                                    
                                                                                                    
                                                                                                    
                                                                                                    
                                                                                                    
                                                                                                    
                                                                                                    
                                                                                                    
                                                                                                    
                                                                                                    
                                                                                                    
                                                                                                    
                                                                                                    
                                                                                                    
                                                                                                    
                                                                                                    
                           
<?xpacket end="w"?></metadata>
<defs>
    <style>
      .cls-1 {
        fill: #3c3c3c;
        fill-rule: evenodd;
      }
    </style>
  </defs>
  <path class="cls-1" d="M96.956,27.989H85.032a2.017,2.017,0,0,0-2.025,2.025v4.163H34.861V30.014a2.017,2.017,0,0,0-2.025-2.025H21.024A2.016,2.016,0,0,0,19,30.014V42.277A2.016,2.016,0,0,0,21.024,44.3H32.948a2.017,2.017,0,0,0,2.025-2.025V38.114H57.134c-0.225,4.95-12.262,28.239-19.911,41.965a2.083,2.083,0,0,0,.45,2.475c6.862,5.85,8.549,11.588,9,14.513H44.085a2.017,2.017,0,0,0-2.025,2.025v9.9a2.016,2.016,0,0,0,2.025,2.025H74.008a2.016,2.016,0,0,0,2.025-2.025v-9.9a2.017,2.017,0,0,0-2.025-2.025H71.42c0.45-2.925,2.137-8.663,9-14.513a2.054,2.054,0,0,0,.45-2.475C73.22,66.354,61.184,42.952,60.959,38.114H83.007v4.163A2.017,2.017,0,0,0,85.032,44.3H96.956a2.016,2.016,0,0,0,2.025-2.025V30.014A2.017,2.017,0,0,0,96.956,27.989ZM30.923,40.252H22.936V31.926h7.987v8.326ZM59.046,73.216A2.588,2.588,0,1,1,56.459,75.8,2.7,2.7,0,0,1,59.046,73.216ZM72.1,106.855H46.11v-5.962H72.1v5.962Zm-4.612-9.9H50.609c-0.45-3.263-2.137-9.788-9.224-16.426,2.7-4.95,10.8-19.8,15.636-30.827V69.616a6.451,6.451,0,0,0-4.5,6.188,6.525,6.525,0,1,0,8.549-6.188V49.59c4.95,11.026,12.937,25.876,15.636,30.939C69.621,87.167,67.933,93.692,67.483,96.955Zm27.56-56.7H87.057V32.039h7.987v8.213Z"/>
</svg>
